PathFileType	4	(X/Y/Z)	C:\Users\Basilio\Documents\Thesis Gigler\squatting_fais\c3dfiles\039\SJ_pre1\markers_experimental.trc
DataRate	CameraRate	NumFrames	NumMarkers	Units	OrigDataRate	OrigDataStartFrame	OrigNumFrames
200.000000	200.000000	4	61	mm	200.000000	1161	1858
Frame#	Time	FHD			LBHD			RBHD			C7			T10			CLAV			LSHO			LUUPA			LMUPA			LDUPA			LLEP			LMEP			LRAD			LUL			LRFIN			RSHO			RUPA1			RMUPA			RDUPA			RLEP			RMEP			RRAD			RUL			RUFIN			LASI			RASI			USACR			LSACR			RSACR			LTHI1			LTHI2			LTHI3			LTHI4			LLFC			LMFC			LTIB1			LTIB2			LTIB3			LTIB4			LLMAL			LMMAL			LHEE			LMT1			LMT2			LMT5			RTHI			RTHI2			RTHI3			RTHI4			RLFC			RMFC			RTIB1			RTIB2			RTIB3			RTIB4			RLMAL			RMMAL			RHEE			RMT1			RMT2			RMT5			
		X1	Y1	Z1	X2	Y2	Z2	X3	Y3	Z3	X4	Y4	Z4	X5	Y5	Z5	X6	Y6	Z6	X7	Y7	Z7	X8	Y8	Z8	X9	Y9	Z9	X10	Y10	Z10	X11	Y11	Z11	X12	Y12	Z12	X13	Y13	Z13	X14	Y14	Z14	X15	Y15	Z15	X16	Y16	Z16	X17	Y17	Z17	X18	Y18	Z18	X19	Y19	Z19	X20	Y20	Z20	X21	Y21	Z21	X22	Y22	Z22	X23	Y23	Z23	X24	Y24	Z24	X25	Y25	Z25	X26	Y26	Z26	X27	Y27	Z27	X28	Y28	Z28	X29	Y29	Z29	X30	Y30	Z30	X31	Y31	Z31	X32	Y32	Z32	X33	Y33	Z33	X34	Y34	Z34	X35	Y35	Z35	X36	Y36	Z36	X37	Y37	Z37	X38	Y38	Z38	X39	Y39	Z39	X40	Y40	Z40	X41	Y41	Z41	X42	Y42	Z42	X43	Y43	Z43	X44	Y44	Z44	X45	Y45	Z45	X46	Y46	Z46	X47	Y47	Z47	X48	Y48	Z48	X49	Y49	Z49	X50	Y50	Z50	X51	Y51	Z51	X52	Y52	Z52	X53	Y53	Z53	X54	Y54	Z54	X55	Y55	Z55	X56	Y56	Z56	X57	Y57	Z57	X58	Y58	Z58	X59	Y59	Z59	X60	Y60	Z60	X61	Y61	Z61	

1162	5.805	114.1010818481446	1056.381469726563	-829.0876464843752	-35.34517669677735	1060.648193359375	-962.5806884765627	-19.59432411193848	1060.106567382813	-821.127624511719	-100.9378280639649	1001.685241699219	-903.8983154296877	-387.5415344238282	903.761413574219	-910.7000732421877	-83.52974700927736	838.737487792969	-903.1262207031252	-33.81660079956055	891.141784667969	-1082.210693359375	-148.2896728515625	878.4335937500002	-1278.905883789063	-166.0506744384766	832.4890747070315	-1276.917236328125	-191.8047332763672	850.9055175781252	-1327.251220703125	-250.0891876220704	818.8796386718752	-1359.041137695313	-293.1421813964844	897.4658813476565	-1347.056030273438	-495.5794677734376	796.7366943359377	-1194.050415039063	-484.7554321289064	726.2197265625001	-1219.908569335938	-474.007049560547	786.421325683594	-1130.306518554688	-59.14882278442384	884.8594970703127	-717.5677490234376	-196.6475982666016	942.869812011719	-562.1875000000001	-218.565658569336	899.6811523437502	-548.2915649414064	-247.6286773681641	939.350280761719	-513.1473388671876	-307.5769042968751	912.3728027343752	-481.5932006835939	-345.5304565429688	986.2266235351565	-519.3304443359376	-499.7915649414064	841.7112426757815	-707.3552856445314	-518.9437255859376	790.7716064453127	-654.1539916992189	-465.3396606445314	793.4841918945315	-749.6858520507814	-449.7359924316407	716.3392944335939	-1042.6689453125	-461.3804016113282	689.8986816406251	-824.511169433594	-545.6402587890626	864.7994384765627	-908.761901855469	-575.4215698242189	854.660827636719	-939.0119628906252	-580.4263305664064	846.7031860351565	-882.3676757812502	-404.8225097656251	598.9385375976564	-1140.957641601563	-320.3425598144532	585.4904785156251	-1151.686645507813	-291.5158081054688	621.7811279296876	-1143.472290039063	-290.1923828125001	532.1538696289064	-1142.511596679688	-200.8350524902344	479.9867553710939	-1133.74951171875	-160.0213775634766	466.625946044922	-1031.0029296875	-159.2842712402344	343.1425476074219	-1117.840454101563	-237.4582214355469	323.3429870605469	-1154.239501953125	-202.5206756591797	308.2495422363282	-1136.24169921875	-223.5948333740235	234.0097198486329	-1094.862426757813	-342.7615661621094	97.204460144043	-1117.503295898438	-316.9465942382813	90.22869873046876	-1033.038696289063	-415.0391540527345	42.85013961791993	-1074.838012695313	-181.3773803710938	53.16143798828126	-1093.211547851563	-192.6261291503907	55.6592140197754	-1134.010375976563	-243.3949737548829	32.87784576416016	-1179.37353515625	-413.9115600585939	615.9615478515626	-705.6382446289064	-347.6941223144532	622.7103881835939	-694.6574096679689	-330.6587829589844	649.4512939453126	-707.8004150390626	-295.3442382812501	559.3909301757814	-676.9448852539064	-215.8580627441407	469.2413940429689	-680.4876708984376	-174.7154388427735	465.7142944335939	-784.2888183593752	-216.9597778320313	276.3736267089844	-687.9192504882814	-315.2294616699219	234.5222778320313	-679.9672851562501	-272.2657470703126	215.3761444091797	-680.3670043945314	-266.5213928222657	161.8844299316407	-706.7192993164064	-354.6108093261719	91.07664489746095	-685.5310668945314	-319.7903137207032	94.94228363037111	-769.4976806640627	-423.5179748535157	41.16682052612305	-733.0961303710939	-190.6432495117188	50.78983688354494	-710.6950683593751	-200.1027984619141	59.5255584716797	-665.8889770507814	-257.3396301269532	32.94005203247071	-618.6196899414064	
1163	5.81	114.2486038208008	1055.934204101563	-829.3261718750002	-35.14653396606446	1060.027587890625	-962.7073974609377	-19.51264190673828	1059.579833984375	-821.0879516601565	-100.65869140625	1001.073364257813	-903.9185791015627	-387.4253845214845	903.609069824219	-910.674499511719	-83.38484954833986	838.191345214844	-903.3649902343752	-33.65184402465821	890.5947265625002	-1082.23388671875	-148.2474822998047	877.9637451171877	-1278.891723632813	-166.0645751953125	831.975280761719	-1276.952880859375	-191.7816619873047	850.6722412109377	-1327.239624023438	-250.0772094726563	818.644226074219	-1359.135986328125	-293.1293334960938	897.3828125000002	-1347.023803710938	-495.6754455566407	796.8254394531252	-1193.954467773438	-484.9016723632814	726.1925659179689	-1219.901000976563	-474.0618896484376	786.4321899414065	-1130.262329101563	-58.96993255615236	884.2041625976565	-717.6002197265626	-196.2797088623047	942.4639892578127	-562.2789306640626	-218.4296875000001	899.4490966796877	-548.3254394531251	-247.4567260742188	939.0927734375002	-513.1697998046876	-307.3442993164063	912.1713867187502	-481.6336059570314	-345.2266235351563	986.1955566406252	-519.4622192382814	-499.7704162597657	841.816345214844	-707.4452514648439	-519.0104980468751	790.9888305664065	-654.1701660156251	-465.4153442382814	793.5330810546877	-749.7286376953126	-449.8568420410157	716.1394042968751	-1042.561401367188	-461.5746459960939	689.8880615234376	-824.4088134765627	-545.6789550781251	864.7993164062502	-908.730895996094	-575.4818725585939	854.6572875976565	-939.0611572265627	-580.4678344726564	846.750183105469	-882.3819580078127	-404.9397277832032	598.9144287109376	-1140.91552734375	-320.4431457519532	585.4618530273439	-1151.662231445313	-291.5838012695313	621.7888793945314	-1143.458129882813	-290.2986145019532	532.0840454101564	-1142.521118164063	-200.9109649658204	480.0301818847657	-1133.724731445313	-160.0877990722657	466.6153564453126	-1031.012573242188	-159.3268127441407	343.1753845214844	-1117.811889648438	-237.4918975830079	323.3885803222657	-1154.257934570313	-202.4956817626954	308.2617187500001	-1136.260864257813	-223.6593475341797	234.0164642333985	-1094.838256835938	-342.7565002441407	97.18361663818362	-1117.506225585938	-316.9553527832032	90.21884918212892	-1033.024658203125	-415.0418395996095	42.81439971923829	-1074.808959960938	-181.4328308105469	53.09980392456056	-1093.263427734375	-192.6331634521485	55.63393020629884	-1134.000122070313	-243.2955932617188	32.8090934753418	-1179.355712890625	-413.9761047363282	615.9644165039064	-705.6380004882814	-347.7888793945313	622.7584838867189	-694.6264038085939	-330.7149963378907	649.4331054687501	-707.7839965820314	-295.4130554199219	559.3967285156251	-676.9287109375001	-215.8436889648438	469.3788452148439	-680.4307250976564	-174.8813171386719	465.7258300781251	-784.2857666015627	-217.0166168212891	276.3823852539063	-687.8467407226564	-315.2650146484376	234.517318725586	-679.9363403320314	-272.2835998535157	215.3807220458985	-680.3941040039064	-266.5643615722657	161.8685607910157	-706.7376098632814	-354.6210632324219	91.07474517822267	-685.5401611328126	-319.7803649902344	94.94127655029298	-769.5024414062502	-423.5115966796876	41.12299728393555	-733.1513061523439	-190.615707397461	50.76069259643556	-710.6505126953126	-200.0924377441407	59.49494934082033	-665.8570556640626	-257.3522338867188	32.91492462158204	-618.6233520507814	
1164	5.815	114.1898956298828	1055.393188476563	-829.3197021484377	-34.70769500732423	1059.30419921875	-963.0003662109377	-19.15215873718262	1058.671752929688	-821.360046386719	-100.5732879638672	1000.560424804688	-903.9531250000002	-387.3374938964845	903.4664306640627	-910.6312255859377	-83.49990081787111	837.561950683594	-903.288757324219	-33.60795211791993	890.3846435546877	-1082.3544921875	-148.1821746826172	877.6932373046877	-1278.924926757813	-166.0202026367188	831.6284790039065	-1276.982666015625	-191.6788482666016	850.2939453125002	-1327.22216796875	-249.7743835449219	817.958923339844	-1359.102783203125	-293.0646362304688	897.1015625000002	-1346.9482421875	-495.7086181640626	796.8764648437502	-1193.853393554688	-484.9908752441407	726.1867065429689	-1219.790283203125	-473.865936279297	786.4477539062502	-1130.129028320313	-58.6225929260254	883.1997070312502	-717.6732788085939	-196.0122680664063	942.1711425781252	-562.3558959960939	-218.3167266845704	899.2423095703127	-548.4023437500001	-247.2593688964844	938.770202636719	-513.2837524414064	-307.1116638183594	912.050476074219	-481.7378540039064	-344.8916625976563	986.1279907226565	-519.5700683593751	-499.7345581054689	841.9219970703127	-707.5554809570314	-518.9858398437501	791.2276000976565	-654.1594848632814	-465.4194641113282	793.6108398437502	-749.8351440429689	-448.5545654296876	717.0344848632814	-1042.2099609375	-460.4562988281251	690.9096069335939	-824.076354980469	-545.7739868164064	865.0959472656252	-908.7041015625002	-575.4370117187501	854.6851806640627	-939.0117797851565	-580.4989013671876	846.7692871093752	-882.3796997070315	-404.988494873047	598.8452148437501	-1140.843505859375	-320.5796813964844	585.4529418945314	-1151.647216796875	-291.6562500000001	621.6921997070314	-1143.4365234375	-290.4009399414063	532.0959472656251	-1142.474487304688	-200.9425964355469	480.0346984863282	-1133.7568359375	-160.0471801757813	466.6855468750001	-1030.893920898438	-159.4133758544922	343.1365661621094	-1117.815307617188	-237.4897003173829	323.8905334472657	-1154.173828125	-202.6139831542969	308.2364807128907	-1136.213989257813	-223.6744232177735	234.0463409423829	-1094.861572265625	-342.7477722167969	97.18424224853518	-1117.503784179688	-316.9309082031251	90.1900100708008	-1033.0283203125	-415.0343017578126	42.84146118164063	-1074.847290039063	-181.3930969238282	53.16205215454103	-1093.237670898438	-192.5513610839844	55.60528945922853	-1133.987182617188	-243.3124084472657	32.81515884399415	-1179.328002929688	-414.0136718750001	616.0058593750001	-705.6131591796876	-347.9099731445313	622.8007202148439	-694.5705566406251	-330.7566223144532	649.4503784179689	-707.7740478515626	-295.4695739746094	559.4480590820314	-676.8426513671876	-215.9550781250001	469.2614135742189	-680.4136352539064	-174.78955078125	465.8085021972657	-784.3015136718752	-217.0577239990235	276.3719482421876	-687.8927001953126	-315.3271789550782	234.5610809326172	-679.9535522460939	-272.3722839355469	215.3759307861329	-680.3928833007814	-266.5960083007813	161.8894500732422	-706.6989135742189	-354.6336364746094	91.09192657470705	-685.5457763671876	-319.8492736816407	94.90150451660158	-769.5181274414065	-423.5267944335939	41.15370178222657	-733.1196289062501	-190.2603149414063	50.02016067504884	-710.5394287109376	-200.1191711425782	59.51671981811525	-665.8626098632814	-257.2476196289063	33.14910507202149	-618.5923461914064	
1165	5.82	114.2317657470703	1054.829345703125	-829.3923339843752	-34.80365371704102	1058.708251953125	-963.1766357421877	-19.37546920776368	1058.648559570313	-821.8436279296877	-100.4323120117188	999.8850708007815	-903.9473266601565	-387.2121582031251	903.2818603515627	-910.6350708007815	-83.39154052734376	836.6163330078127	-903.207458496094	-33.28323364257813	889.4476318359377	-1082.47705078125	-148.024887084961	877.2354736328127	-1279.069213867188	-166.0321044921875	831.0693969726565	-1277.066162109375	-191.5439758300782	849.8685302734377	-1327.296997070313	-250.0229644775391	818.2496337890627	-1359.173828125	-293.0038452148438	896.9685058593752	-1346.937744140625	-495.7981262207032	796.9512329101565	-1193.8115234375	-485.1061401367189	726.0665893554689	-1219.8505859375	-473.9710693359376	786.4077758789065	-1130.074462890625	-58.50776672363283	882.7956542968752	-717.7555541992189	-195.7350463867188	941.7758789062502	-562.3570556640626	-218.1434936523438	898.8726806640627	-548.3881835937501	-247.0222930908204	938.5216064453127	-513.4019775390626	-306.8964538574219	911.9365844726565	-481.7909545898439	-344.5649414062501	986.004089355469	-519.6275634765626	-499.7764587402345	842.079772949219	-707.6399536132814	-518.9795532226564	791.4229125976565	-654.2274169921876	-465.4280090332032	793.6231689453127	-749.8824462890626	-448.5667419433595	717.1664428710939	-1042.340209960938	-460.1215820312501	691.0396118164064	-824.2124023437502	-545.8040161132814	865.122253417969	-908.6678466796877	-575.4466552734376	854.704772949219	-939.004577636719	-580.4233398437501	846.757019042969	-882.2465820312502	-405.0314331054689	598.8021850585939	-1140.816284179688	-320.6430358886719	585.4759521484376	-1151.628051757813	-291.7324829101563	621.7283935546876	-1143.40966796875	-290.4251708984376	532.0316162109376	-1142.465209960938	-201.0529327392579	480.0633239746095	-1133.747314453125	-160.138916015625	466.6847534179689	-1030.925537109375	-159.4082183837891	343.1849975585938	-1117.777099609375	-237.4987792968751	323.8962402343751	-1154.174072265625	-202.6484375000001	308.2084655761719	-1136.181640625	-223.6758117675782	234.0464172363282	-1094.861206054688	-342.7702331542969	97.17054748535159	-1117.540161132813	-316.9880065917969	90.25653076171876	-1033.017333984375	-415.0926513671876	42.86172485351563	-1074.853759765625	-181.4041290283203	53.15073394775392	-1093.23876953125	-192.767074584961	55.34626388549806	-1133.75732421875	-243.1932678222657	32.8311882019043	-1179.46533203125	-414.0871582031251	615.9901123046876	-705.5395507812501	-347.9586791992188	622.8911132812501	-694.5546875000001	-330.7892456054688	649.5530395507814	-707.7272949218751	-295.5590515136719	559.5114746093751	-676.8134155273439	-215.9799499511719	469.3292846679689	-680.4925537109376	-174.9046783447266	465.8143920898439	-784.2749633789065	-217.0863189697266	276.3468322753907	-687.8516845703126	-315.3330993652344	234.5828247070313	-679.9377441406251	-272.3646850585938	215.4660949707032	-680.3469238281251	-266.6175231933594	161.9871063232422	-706.7574462890626	-354.6054382324219	91.10669708251955	-685.5635375976564	-319.8058166503907	94.94917297363283	-769.4744262695315	-423.5205383300782	41.14305877685548	-733.1204223632814	-190.5793609619141	50.83028411865236	-710.6083984375001	-200.1021728515626	59.52140426635744	-665.8477783203126	-257.3688964843751	32.93388366699219	-618.6162719726564	
